<svg width="142" height="170" viewBox="0 0 142 170" fill="none" xmlns="http://www.w3.org/2000/svg">
<mask id="mask0_339_2212" style="mask-type:luminance" maskUnits="userSpaceOnUse" x="0" y="152" width="30" height="18">
<path d="M0.213562 152.109H29.4584V169.979H0.213562V152.109Z" fill="white"/>
</mask>
<g mask="url(#mask0_339_2212)">
<mask id="mask1_339_2212" style="mask-type:luminance" maskUnits="userSpaceOnUse" x="0" y="152" width="30" height="18">
<path d="M20.1354 169.974H19.6875L14.4063 156.865L9.14585 169.974H8.6719L3.19794 156.359C2.23439 153.995 1.13544 152.313 0.213562 152.313L0.234395 152.109H5.96877V152.313C5.13023 152.313 4.82815 152.635 4.82815 153.167C4.82815 153.542 4.97919 153.995 5.1719 154.526L10.0052 166.302L14.125 156.188C13.2031 153.922 12.1302 152.313 11.2292 152.313V152.109H17.6042V152.313C17.1719 152.313 16.724 152.635 16.25 153.24C16.1667 153.417 16.1198 153.594 16.1198 153.792C16.1198 154.245 16.3125 154.823 16.6563 155.656L21.0156 166.302L25.3125 155.833C25.5261 155.281 25.6302 154.75 25.6302 154.276C25.6302 153.141 25.0313 152.313 23.6979 152.313V152.109H29.4531V152.313C28.5313 152.313 26.6406 153.823 25.6927 156.208L20.1354 169.974Z" fill="white"/>
</mask>
<g mask="url(#mask1_339_2212)">
<mask id="mask2_339_2212" style="mask-type:luminance" maskUnits="userSpaceOnUse" x="-1" y="151" width="32" height="20">
<path d="M30.3334 151H-0.333313V171H30.3334V151Z" fill="white"/>
</mask>
<g mask="url(#mask2_339_2212)">
<mask id="mask3_339_2212" style="mask-type:luminance" maskUnits="userSpaceOnUse" x="0" y="152" width="30" height="18">
<path d="M0.213562 152.109H29.4584V169.979H0.213562V152.109Z" fill="white"/>
</mask>
<g mask="url(#mask3_339_2212)">
<mask id="mask4_339_2212" style="mask-type:luminance" maskUnits="userSpaceOnUse" x="0" y="152" width="30" height="18">
<path d="M20.1354 169.974H19.6875L14.4063 156.865L9.14585 169.974H8.6719L3.19794 156.359C2.2344 153.995 1.13544 152.313 0.213562 152.313L0.234395 152.109H5.96877V152.313C5.13023 152.313 4.82815 152.635 4.82815 153.167C4.82815 153.542 4.97919 153.995 5.1719 154.526L10.0052 166.302L14.125 156.188C13.2031 153.922 12.1302 152.313 11.2292 152.313V152.109H17.6042V152.313C17.1719 152.313 16.724 152.635 16.25 153.24C16.1667 153.417 16.1198 153.594 16.1198 153.792C16.1198 154.245 16.3125 154.823 16.6563 155.656L21.0156 166.302L25.3125 155.833C25.5261 155.281 25.6302 154.75 25.6302 154.276C25.6302 153.141 25.0313 152.313 23.6979 152.313V152.109H29.4531V152.313C28.5313 152.313 26.6406 153.823 25.6927 156.208L20.1354 169.974Z" fill="white"/>
</mask>
<g mask="url(#mask4_339_2212)">
<path d="M0.213562 152.109H29.4584V169.979H0.213562V152.109Z" fill="#090F10"/>
</g>
</g>
</g>
</g>
</g>
<mask id="mask5_339_2212" style="mask-type:luminance" maskUnits="userSpaceOnUse" x="36" y="152" width="6" height="18">
<path d="M36.2136 152.109H41.7761V169.745H36.2136V152.109Z" fill="white"/>
</mask>
<g mask="url(#mask5_339_2212)">
<mask id="mask6_339_2212" style="mask-type:luminance" maskUnits="userSpaceOnUse" x="36" y="152" width="6" height="18">
<path d="M41.7709 152.109V152.313C40.3125 152.313 40.3125 153.771 40.3125 155.755V166.073C40.3125 168.062 40.3125 169.521 41.7709 169.521V169.724H36.2136V169.521C37.6979 169.521 37.6979 168.062 37.6979 166.073V155.755C37.6979 153.771 37.6979 152.313 36.2136 152.313V152.109H41.7709Z" fill="white"/>
</mask>
<g mask="url(#mask6_339_2212)">
<mask id="mask7_339_2212" style="mask-type:luminance" maskUnits="userSpaceOnUse" x="35" y="151" width="8" height="20">
<path d="M42.3334 151H35.6667V171H42.3334V151Z" fill="white"/>
</mask>
<g mask="url(#mask7_339_2212)">
<mask id="mask8_339_2212" style="mask-type:luminance" maskUnits="userSpaceOnUse" x="36" y="152" width="6" height="18">
<path d="M36.2136 152.109H41.7761V169.745H36.2136V152.109Z" fill="white"/>
</mask>
<g mask="url(#mask8_339_2212)">
<mask id="mask9_339_2212" style="mask-type:luminance" maskUnits="userSpaceOnUse" x="36" y="152" width="6" height="18">
<path d="M41.7709 152.109V152.313C40.3125 152.313 40.3125 153.771 40.3125 155.755V166.073C40.3125 168.063 40.3125 169.521 41.7709 169.521V169.724H36.2136V169.521C37.6979 169.521 37.6979 168.063 37.6979 166.073V155.755C37.6979 153.771 37.6979 152.313 36.2136 152.313V152.109H41.7709Z" fill="white"/>
</mask>
<g mask="url(#mask9_339_2212)">
<path d="M36.2136 152.109H41.7761V169.724H36.2136V152.109Z" fill="#090F10"/>
</g>
</g>
</g>
</g>
</g>
<mask id="mask10_339_2212" style="mask-type:luminance" maskUnits="userSpaceOnUse" x="48" y="152" width="22" height="18">
<path d="M48.5781 152.109H69.0833V169.792H48.5781V152.109Z" fill="white"/>
</mask>
<g mask="url(#mask10_339_2212)">
<mask id="mask11_339_2212" style="mask-type:luminance" maskUnits="userSpaceOnUse" x="48" y="152" width="22" height="18">
<path d="M51.8177 156.063V165.901C51.9063 168.115 53.1302 169.526 54.5677 169.526V169.729H48.5781V169.521C50.0625 169.521 51.3021 168.01 51.3021 165.625V156.188C51.3021 153.823 50.5729 152.313 49.0729 152.313V152.109H51.7969L65.8177 165.422V156.031C65.776 153.745 64.526 152.313 63.0677 152.313V152.109H69.0573V152.313C67.5781 152.313 66.3333 153.823 66.3333 156.208V169.724H66.0729L51.8177 156.063Z" fill="white"/>
</mask>
<g mask="url(#mask11_339_2212)">
<mask id="mask12_339_2212" style="mask-type:luminance" maskUnits="userSpaceOnUse" x="47" y="151" width="24" height="20">
<path d="M70.3334 151H47.6667V171H70.3334V151Z" fill="white"/>
</mask>
<g mask="url(#mask12_339_2212)">
<mask id="mask13_339_2212" style="mask-type:luminance" maskUnits="userSpaceOnUse" x="48" y="152" width="22" height="18">
<path d="M48.5781 152.109H69.0833V169.792H48.5781V152.109Z" fill="white"/>
</mask>
<g mask="url(#mask13_339_2212)">
<mask id="mask14_339_2212" style="mask-type:luminance" maskUnits="userSpaceOnUse" x="48" y="152" width="22" height="18">
<path d="M51.8177 156.063V165.901C51.9063 168.115 53.1302 169.526 54.5677 169.526V169.729H48.5781V169.521C50.0625 169.521 51.3021 168.01 51.3021 165.625V156.188C51.3021 153.823 50.5729 152.313 49.0729 152.313V152.109H51.7969L65.8177 165.422V156.031C65.776 153.745 64.526 152.313 63.0677 152.313V152.109H69.0573V152.313C67.5781 152.313 66.3333 153.823 66.3333 156.208V169.724H66.0729L51.8177 156.063Z" fill="white"/>
</mask>
<g mask="url(#mask14_339_2212)">
<path d="M48.5781 152.109H69.0833V169.724H48.5781V152.109Z" fill="#090F10"/>
</g>
</g>
</g>
</g>
</g>
<mask id="mask15_339_2212" style="mask-type:luminance" maskUnits="userSpaceOnUse" x="75" y="152" width="17" height="18">
<path d="M75.8386 152.109H91.7031V169.771H75.8386V152.109Z" fill="white"/>
</mask>
<g mask="url(#mask15_339_2212)">
<mask id="mask16_339_2212" style="mask-type:luminance" maskUnits="userSpaceOnUse" x="75" y="152" width="17" height="18">
<path d="M85.1979 169.12C87.2188 169.12 90.4584 167.839 91.5729 165.297L91.7031 165.349L90.4375 169.724H75.8386V169.521C77.3229 169.521 77.3229 168.062 77.3229 166.073V155.755C77.3229 153.771 77.3229 152.313 75.8386 152.313V152.109H90.1406L90.8906 155.505L90.7604 155.583C89.6459 153.016 86.8959 152.714 84.8959 152.714H84.9844H81.4011C79.9427 152.714 79.9427 153.766 79.9427 155.755V160.615H85.7396C87.9271 160.411 88.5469 159.057 88.5469 157.745H88.7188V164.063H88.5469C88.5469 162.677 87.8438 161.219 85.2031 161.219H79.9427V169.12H85.1979Z" fill="white"/>
</mask>
<g mask="url(#mask16_339_2212)">
<mask id="mask17_339_2212" style="mask-type:luminance" maskUnits="userSpaceOnUse" x="75" y="151" width="18" height="20">
<path d="M93 151H75.6667V171H93V151Z" fill="white"/>
</mask>
<g mask="url(#mask17_339_2212)">
<mask id="mask18_339_2212" style="mask-type:luminance" maskUnits="userSpaceOnUse" x="75" y="152" width="17" height="18">
<path d="M75.8386 152.109H91.7031V169.771H75.8386V152.109Z" fill="white"/>
</mask>
<g mask="url(#mask18_339_2212)">
<mask id="mask19_339_2212" style="mask-type:luminance" maskUnits="userSpaceOnUse" x="75" y="152" width="17" height="18">
<path d="M85.1979 169.12C87.2188 169.12 90.4584 167.839 91.5729 165.297L91.7031 165.349L90.4375 169.724H75.8386V169.521C77.3229 169.521 77.3229 168.063 77.3229 166.073V155.755C77.3229 153.771 77.3229 152.313 75.8386 152.313V152.109H90.1406L90.8906 155.505L90.7604 155.583C89.6459 153.016 86.8959 152.714 84.8959 152.714H84.9844H81.4011C79.9427 152.714 79.9427 153.766 79.9427 155.755V160.615H85.7396C87.9271 160.411 88.5469 159.057 88.5469 157.745H88.7188V164.063H88.5469C88.5469 162.677 87.8438 161.219 85.2031 161.219H79.9427V169.12H85.1979Z" fill="white"/>
</mask>
<g mask="url(#mask19_339_2212)">
<path d="M75.8386 152.109H91.7031V169.708H75.8386V152.109Z" fill="#090F10"/>
</g>
</g>
</g>
</g>
</g>
<mask id="mask20_339_2212" style="mask-type:luminance" maskUnits="userSpaceOnUse" x="98" y="152" width="18" height="18">
<path d="M98.4636 152.109H115.766V169.75H98.4636V152.109Z" fill="white"/>
</mask>
<g mask="url(#mask20_339_2212)">
<mask id="mask21_339_2212" style="mask-type:luminance" maskUnits="userSpaceOnUse" x="98" y="152" width="18" height="18">
<path d="M106.172 161.568C108.661 161.568 109.885 159.354 109.885 157.141C109.885 154.927 108.661 152.714 106.172 152.714H104.026C102.568 152.714 102.568 153.771 102.568 155.755V161.568H106.172ZM102.568 162.177V166.078C102.568 168.063 102.568 169.521 104.026 169.521V169.724H98.4636V169.521C99.9479 169.521 99.9479 168.063 99.9479 166.078V155.755C99.9479 153.771 99.9479 152.313 98.4636 152.313V152.109H106.385C110.531 152.109 112.589 154.625 112.589 157.141C112.589 159.229 111.151 161.344 108.255 161.974L112.526 166.906C113.813 168.344 114.974 169.526 115.766 169.526V169.729H109.755V169.521C110.464 169.521 110.724 169.323 110.724 169.021C110.724 168.771 110.552 168.443 110.292 168.063L109.286 166.88C109.219 166.802 109.156 166.729 109.094 166.677L105.354 162.177H102.568Z" fill="white"/>
</mask>
<g mask="url(#mask21_339_2212)">
<mask id="mask22_339_2212" style="mask-type:luminance" maskUnits="userSpaceOnUse" x="98" y="151" width="19" height="20">
<path d="M117 151H98.3334V171H117V151Z" fill="white"/>
</mask>
<g mask="url(#mask22_339_2212)">
<mask id="mask23_339_2212" style="mask-type:luminance" maskUnits="userSpaceOnUse" x="98" y="152" width="18" height="18">
<path d="M98.4636 152.109H115.766V169.75H98.4636V152.109Z" fill="white"/>
</mask>
<g mask="url(#mask23_339_2212)">
<mask id="mask24_339_2212" style="mask-type:luminance" maskUnits="userSpaceOnUse" x="98" y="152" width="18" height="18">
<path d="M106.172 161.568C108.661 161.568 109.885 159.354 109.885 157.141C109.885 154.927 108.661 152.714 106.172 152.714H104.026C102.568 152.714 102.568 153.771 102.568 155.755V161.568H106.172ZM102.568 162.177V166.078C102.568 168.063 102.568 169.521 104.026 169.521V169.724H98.4636V169.521C99.9479 169.521 99.9479 168.063 99.9479 166.078V155.755C99.9479 153.771 99.9479 152.313 98.4636 152.313V152.109H106.385C110.531 152.109 112.589 154.625 112.589 157.141C112.589 159.229 111.151 161.344 108.255 161.974L112.526 166.906C113.813 168.344 114.974 169.526 115.766 169.526V169.729H109.755V169.521C110.464 169.521 110.724 169.323 110.724 169.021C110.724 168.771 110.552 168.443 110.292 168.063L109.286 166.88C109.219 166.802 109.156 166.729 109.094 166.677L105.354 162.177H102.568Z" fill="white"/>
</mask>
<g mask="url(#mask24_339_2212)">
<path d="M98.4636 152.109H115.766V169.75H98.4636V152.109Z" fill="#090F10"/>
</g>
</g>
</g>
</g>
</g>
<mask id="mask25_339_2212" style="mask-type:luminance" maskUnits="userSpaceOnUse" x="19" y="0" width="104" height="137">
<path d="M19.3386 0.973633H122.661V136.208H19.3386V0.973633Z" fill="white"/>
</mask>
<g mask="url(#mask25_339_2212)">
<mask id="mask26_339_2212" style="mask-type:luminance" maskUnits="userSpaceOnUse" x="19" y="0" width="104" height="137">
<path d="M120.99 77.5986C120.818 78.2601 120.63 78.9163 120.427 79.5778C116.563 92.2288 108.958 102.552 100.109 112.088C92.0469 120.776 82.6406 127.906 73.4063 135.234C72.5885 135.885 71.7917 136.229 71 136.203C70.2083 136.229 69.4115 135.885 68.5938 135.234C59.3594 127.906 49.9531 120.776 41.8906 112.088C33.0417 102.552 25.4375 92.2288 21.5729 79.5778C21.3698 78.9163 21.1823 78.2601 21.0052 77.5986C18.9219 69.7966 18.6458 61.9945 21.0052 54.4788C21.5417 52.7705 22.2187 51.083 23.0365 49.4059C25.776 43.8018 29.4271 38.4528 33.526 33.7393C38.6875 27.8122 44.6979 22.6247 50.3906 17.1715C53.5521 14.1507 54.5417 11.3278 53.0937 8.04134C52.6667 7.05697 51.6823 6.28092 50.8542 5.5153C49.1458 3.94238 49.4479 2.16634 51.6615 1.44238C52.5156 1.16634 53.4479 1.02051 54.3437 1.01009C58.4792 0.963216 62.6146 0.989258 66.7552 0.989258L71 0.973633L75.2448 0.989258C79.3802 0.989258 83.5208 0.963216 87.6563 1.01009C88.5521 1.02051 89.4844 1.16634 90.3333 1.44238C92.5521 2.16634 92.849 3.94238 91.1458 5.5153C90.3125 6.28092 89.3333 7.05697 88.901 8.04134C87.4583 11.3278 88.4479 14.1507 91.6042 17.1715C97.3021 22.6247 103.313 27.8122 108.469 33.7393C112.573 38.4528 116.224 43.8018 118.964 49.4059C119.781 51.083 120.453 52.7705 120.99 54.4788C123.354 61.9945 123.073 69.7966 120.99 77.5986Z" fill="white"/>
</mask>
<g mask="url(#mask26_339_2212)">
<mask id="mask27_339_2212" style="mask-type:luminance" maskUnits="userSpaceOnUse" x="18" y="0" width="106" height="137">
<path d="M123.667 0.333008H18.3333V136.333H123.667V0.333008Z" fill="white"/>
</mask>
<g mask="url(#mask27_339_2212)">
<mask id="mask28_339_2212" style="mask-type:luminance" maskUnits="userSpaceOnUse" x="19" y="0" width="104" height="137">
<path d="M19.3385 0.973633H122.661V136.208H19.3385V0.973633Z" fill="white"/>
</mask>
<g mask="url(#mask28_339_2212)">
<mask id="mask29_339_2212" style="mask-type:luminance" maskUnits="userSpaceOnUse" x="19" y="0" width="104" height="137">
<path d="M120.99 77.5986C120.818 78.2601 120.63 78.9163 120.427 79.5778C116.562 92.2288 108.958 102.552 100.109 112.088C92.0468 120.776 82.6406 127.906 73.4062 135.234C72.5885 135.885 71.7916 136.229 70.9999 136.203C70.2083 136.229 69.4114 135.885 68.5937 135.234C59.3593 127.906 49.9531 120.776 41.8906 112.088C33.0416 102.552 25.4374 92.2288 21.5729 79.5778C21.3697 78.9163 21.1822 78.2601 21.0051 77.5986C18.9218 69.7966 18.6458 61.9945 21.0051 54.4788C21.5416 52.7705 22.2187 51.083 23.0364 49.4059C25.776 43.8018 29.427 38.4528 33.526 33.7393C38.6874 27.8122 44.6979 22.6247 50.3906 17.1715C53.552 14.1507 54.5416 11.3278 53.0937 8.04134C52.6666 7.05697 51.6822 6.28092 50.8541 5.5153C49.1458 3.94238 49.4479 2.16634 51.6614 1.44238C52.5156 1.16634 53.4479 1.02051 54.3437 1.01009C58.4791 0.963216 62.6145 0.989258 66.7551 0.989258L70.9999 0.973633L75.2447 0.989258C79.3801 0.989258 83.5208 0.963216 87.6562 1.01009C88.552 1.02051 89.4843 1.16634 90.3333 1.44238C92.552 2.16634 92.8489 3.94238 91.1458 5.5153C90.3124 6.28092 89.3333 7.05697 88.901 8.04134C87.4583 11.3278 88.4479 14.1507 91.6041 17.1715C97.302 22.6247 103.312 27.8122 108.469 33.7393C112.573 38.4528 116.224 43.8018 118.963 49.4059C119.781 51.083 120.453 52.7705 120.99 54.4788C123.354 61.9945 123.073 69.7966 120.99 77.5986Z" fill="white"/>
</mask>
<g mask="url(#mask29_339_2212)">
<path d="M18.3854 0.0205078H123.615V137.156H18.3854V0.0205078Z" fill="#A61E22"/>
</g>
</g>
</g>
</g>
</g>
<mask id="mask30_339_2212" style="mask-type:luminance" maskUnits="userSpaceOnUse" x="35" y="11" width="73" height="102">
<path d="M35.1042 11.4219H107.276V112.089H35.1042V11.4219Z" fill="white"/>
</mask>
<g mask="url(#mask30_339_2212)">
<mask id="mask31_339_2212" style="mask-type:luminance" maskUnits="userSpaceOnUse" x="35" y="11" width="73" height="101">
<path d="M71.2813 101.354C68.1302 104.094 65.5156 107.084 62.2865 109.058C51.9896 115.334 43.3177 110.74 38.6563 101.193C34.6406 92.9639 35.0781 84.0889 35.4636 75.1253C35.9792 63.1826 40.3854 52.2555 43.0677 40.8805C43.3906 39.4847 44.0417 38.167 44.5573 36.8232C45.1406 35.292 45.9271 34.3337 47.9011 34.5212C49.0104 34.6201 50.2136 33.7972 51.3594 33.3441C51.9063 33.1253 52.4115 32.8128 53.5417 32.2347C52.3386 36.9587 51.2708 41.0316 50.2761 45.1201C48.3438 53.0628 45.8281 60.9326 44.7136 68.9899C43.4375 78.2087 42.9323 87.6514 45.0469 96.8701C46.099 101.459 48.1823 105.735 53.2813 107.36C57.6458 108.75 61.9792 107.162 64.4115 103.302C66.4375 100.089 67.3229 96.5212 67.4636 92.7659C67.8125 83.4951 68.0938 74.2191 68.4636 64.9534C68.7396 57.9795 69.5886 50.9951 69.2969 44.0524C68.9844 36.5837 67.625 29.1618 66.7813 21.7139C66.5729 19.8649 66.3646 17.9691 66.5625 16.1357C66.8698 13.2816 69.1511 11.4899 71.8646 11.5889C74.125 11.6774 76.3229 13.9587 76.2344 16.7451C76.1406 19.7139 75.5261 22.6722 75.1511 25.6305C74.5521 30.3441 73.9115 35.0524 73.3854 39.7712C73.1042 42.2868 72.8229 44.8337 72.9115 47.3545C73.3229 59.0472 73.8281 70.7451 74.3698 82.4378C74.599 87.3701 74.8958 92.3024 75.3542 97.2139C75.7083 101 79.1979 106.125 82.3125 106.979C86.724 108.193 91.3125 106.334 94.1354 102.328C97.1927 97.9847 97.9323 92.9639 98.2761 87.9222C99.2344 73.8857 96.3438 60.3284 92.7552 46.8805C91.4688 42.0524 90.375 37.1722 89.0625 31.7816C90.1302 32.3337 90.7292 32.6722 91.3594 32.9534C92.2292 33.3389 93.3177 34.2034 93.9792 33.9587C97.1198 32.7972 97.7136 34.7972 98.3386 37.0316C100.448 44.5941 102.526 52.1618 104.734 59.6982C107.073 67.6774 107.375 75.8701 107.057 84.042C106.792 90.9795 105.469 97.818 101.26 103.683C98.0417 108.162 93.7813 111.308 88.1927 111.407C83.5 111.49 79.3594 109.323 75.9375 106.026C74.3021 104.453 72.7344 102.813 71.2813 101.354Z" fill="white"/>
</mask>
<g mask="url(#mask31_339_2212)">
<mask id="mask32_339_2212" style="mask-type:luminance" maskUnits="userSpaceOnUse" x="34" y="11" width="74" height="102">
<path d="M107.667 11H34.3333V112.333H107.667V11Z" fill="white"/>
</mask>
<g mask="url(#mask32_339_2212)">
<mask id="mask33_339_2212" style="mask-type:luminance" maskUnits="userSpaceOnUse" x="35" y="11" width="73" height="102">
<path d="M35.1041 11.4219H107.276V112.089H35.1041V11.4219Z" fill="white"/>
</mask>
<g mask="url(#mask33_339_2212)">
<mask id="mask34_339_2212" style="mask-type:luminance" maskUnits="userSpaceOnUse" x="35" y="11" width="73" height="101">
<path d="M71.2812 101.354C68.1302 104.094 65.5156 107.084 62.2864 109.058C51.9895 115.334 43.3177 110.74 38.6562 101.193C34.6406 92.9639 35.0781 84.0889 35.4635 75.1253C35.9791 63.1826 40.3854 52.2555 43.0677 40.8805C43.3906 39.4847 44.0416 38.167 44.5572 36.8232C45.1406 35.292 45.927 34.3337 47.901 34.5212C49.0104 34.6201 50.2135 33.7972 51.3593 33.3441C51.9062 33.1253 52.4114 32.8128 53.5416 32.2347C52.3385 36.9587 51.2708 41.0316 50.276 45.1201C48.3437 53.0628 45.8281 60.9326 44.7135 68.9899C43.4374 78.2087 42.9322 87.6514 45.0468 96.8701C46.0989 101.459 48.1822 105.735 53.2812 107.36C57.6458 108.75 61.9791 107.162 64.4114 103.302C66.4374 100.089 67.3229 96.5212 67.4635 92.7659C67.8125 83.4951 68.0937 74.2191 68.4635 64.9534C68.7395 57.9795 69.5885 50.9951 69.2968 44.0524C68.9843 36.5837 67.6249 29.1618 66.7812 21.7139C66.5729 19.8649 66.3645 17.9691 66.5625 16.1357C66.8697 13.2816 69.151 11.4899 71.8645 11.5889C74.1249 11.6774 76.3229 13.9587 76.2343 16.7451C76.1406 19.7139 75.526 22.6722 75.151 25.6305C74.552 30.3441 73.9114 35.0524 73.3854 39.7712C73.1041 42.2868 72.8229 44.8337 72.9114 47.3545C73.3229 59.0472 73.8281 70.7451 74.3697 82.4378C74.5989 87.3701 74.8958 92.3024 75.3541 97.2139C75.7083 101 79.1979 106.125 82.3125 106.979C86.7239 108.193 91.3125 106.334 94.1354 102.328C97.1927 97.9847 97.9322 92.9639 98.276 87.9222C99.2343 73.8857 96.3437 60.3284 92.7552 46.8805C91.4687 42.0524 90.375 37.1722 89.0625 31.7816C90.1302 32.3337 90.7291 32.6722 91.3593 32.9534C92.2291 33.3389 93.3177 34.2034 93.9791 33.9587C97.1197 32.7972 97.7135 34.7972 98.3385 37.0316C100.448 44.5941 102.526 52.1618 104.734 59.6982C107.073 67.6774 107.375 75.8701 107.057 84.042C106.792 90.9795 105.469 97.818 101.26 103.683C98.0416 108.162 93.7812 111.308 88.1927 111.407C83.5 111.49 79.3593 109.323 75.9375 106.026C74.302 104.453 72.7343 102.813 71.2812 101.354Z" fill="white"/>
</mask>
<g mask="url(#mask34_339_2212)">
<path d="M107.667 11H34.3333V112.333H107.667V11Z" fill="white"/>
</g>
</g>
</g>
</g>
</g>
<mask id="mask35_339_2212" style="mask-type:luminance" maskUnits="userSpaceOnUse" x="61" y="106" width="20" height="20">
<path d="M61.5052 106.391H80.6875V125.667H61.5052V106.391Z" fill="white"/>
</mask>
<g mask="url(#mask35_339_2212)">
<mask id="mask36_339_2212" style="mask-type:luminance" maskUnits="userSpaceOnUse" x="61" y="106" width="20" height="20">
<path d="M64.2344 118.438C64.2344 118.438 65.4688 119.62 67.3177 118.802C67.3177 118.802 66.1354 120.344 67.0104 122.297C67.0104 122.297 68.9375 121.625 69.25 119.901C69.1459 120.693 68.8698 124.016 71.125 125.594H71.1459C73.4011 124.016 73.125 120.693 73.0209 119.901C73.3334 121.625 75.2604 122.297 75.2604 122.297C76.1354 120.344 74.9531 118.802 74.9531 118.802C76.8073 119.625 78.0417 118.438 78.0417 118.438C72.5886 117.256 71.0938 109.177 71.0938 109.177C71.0938 109.177 69.6875 117.256 64.2344 118.438ZM65.2136 116.792C68.7604 116.844 70.4115 108.354 70.4636 106.401C70.4636 106.401 68.4271 115.558 65.0573 114.683C62.2813 113.964 64.4948 110.464 66.2917 112.058C66.2917 112.058 65.6042 110.886 63.875 110.979C61.0938 111.131 60.1563 116.719 65.2136 116.792ZM77.0625 116.792C82.125 116.719 81.1823 111.131 78.4011 110.979C76.6771 110.881 75.9844 112.058 75.9844 112.058C77.7865 110.464 79.9948 113.964 77.2188 114.683C73.8542 115.558 71.8177 106.401 71.8177 106.401C71.8646 108.354 73.5104 116.844 77.0625 116.792Z" fill="white"/>
</mask>
<g mask="url(#mask36_339_2212)">
<mask id="mask37_339_2212" style="mask-type:luminance" maskUnits="userSpaceOnUse" x="61" y="105" width="20" height="21">
<path d="M81 105.667H61V125.667H81V105.667Z" fill="white"/>
</mask>
<g mask="url(#mask37_339_2212)">
<mask id="mask38_339_2212" style="mask-type:luminance" maskUnits="userSpaceOnUse" x="61" y="106" width="20" height="20">
<path d="M61.5052 106.391H80.6875V125.667H61.5052V106.391Z" fill="white"/>
</mask>
<g mask="url(#mask38_339_2212)">
<mask id="mask39_339_2212" style="mask-type:luminance" maskUnits="userSpaceOnUse" x="61" y="106" width="20" height="20">
<path d="M64.2344 118.438C64.2344 118.438 65.4688 119.62 67.3177 118.802C67.3177 118.802 66.1354 120.344 67.0104 122.297C67.0104 122.297 68.9375 121.625 69.25 119.901C69.1459 120.693 68.8698 124.016 71.125 125.594H71.1459C73.4011 124.016 73.125 120.693 73.0209 119.901C73.3334 121.625 75.2604 122.297 75.2604 122.297C76.1354 120.344 74.9531 118.802 74.9531 118.802C76.8073 119.625 78.0417 118.438 78.0417 118.438C72.5886 117.256 71.0938 109.177 71.0938 109.177C71.0938 109.177 69.6875 117.256 64.2344 118.438ZM65.2136 116.792C68.7604 116.844 70.4115 108.354 70.4636 106.401C70.4636 106.401 68.4271 115.558 65.0573 114.683C62.2813 113.964 64.4948 110.464 66.2917 112.058C66.2917 112.058 65.6042 110.886 63.875 110.979C61.0938 111.131 60.1563 116.719 65.2136 116.792ZM77.0625 116.792C82.125 116.719 81.1823 111.131 78.4011 110.979C76.6771 110.881 75.9844 112.058 75.9844 112.058C77.7865 110.464 79.9948 113.964 77.2188 114.683C73.8542 115.558 71.8177 106.401 71.8177 106.401C71.8646 108.354 73.5104 116.844 77.0625 116.792Z" fill="white"/>
</mask>
<g mask="url(#mask39_339_2212)">
<path d="M81 105.667H61V125.667H81V105.667Z" fill="white"/>
</g>
</g>
</g>
</g>
</g>
<mask id="mask40_339_2212" style="mask-type:luminance" maskUnits="userSpaceOnUse" x="74" y="22" width="20" height="24">
<path d="M74.6094 22.2441H93.0313V45.6087H74.6094V22.2441Z" fill="white"/>
</mask>
<g mask="url(#mask40_339_2212)">
<mask id="mask41_339_2212" style="mask-type:luminance" maskUnits="userSpaceOnUse" x="74" y="22" width="20" height="24">
<path d="M74.7448 40.0723C74.7448 44.8952 76.9011 45.4682 78.1146 45.4682C79.3334 45.4682 80.4584 44.6504 80.4584 43.3432C80.4584 42.0359 78.5886 41.4629 78.1146 41.4629C77.6459 41.4629 76.2136 42.5515 77.0261 43.1504C77.0261 43.1504 76.9636 42.2234 78.1511 42.2234C79.3386 42.2234 79.3334 42.989 79.3334 43.5307C79.3334 44.0775 78.8959 44.7338 77.9636 44.7338C77.0261 44.7338 75.2761 44.515 75.2761 39.989C75.2761 39.989 75.3073 26.7442 89.5417 26.5827C89.5417 26.5827 89.8281 24.6192 93.0104 24.4577C93.0104 24.4577 91.9792 22.4161 88.9792 22.3327C86.6406 22.2702 74.7448 26.3379 74.7448 40.0723Z" fill="white"/>
</mask>
<g mask="url(#mask41_339_2212)">
<mask id="mask42_339_2212" style="mask-type:luminance" maskUnits="userSpaceOnUse" x="74" y="21" width="21" height="25">
<path d="M94.3334 21.666H74.3334V45.666H94.3334V21.666Z" fill="white"/>
</mask>
<g mask="url(#mask42_339_2212)">
<mask id="mask43_339_2212" style="mask-type:luminance" maskUnits="userSpaceOnUse" x="74" y="22" width="20" height="24">
<path d="M74.6094 22.2441H93.0313V45.5618H74.6094V22.2441Z" fill="white"/>
</mask>
<g mask="url(#mask43_339_2212)">
<mask id="mask44_339_2212" style="mask-type:luminance" maskUnits="userSpaceOnUse" x="74" y="22" width="20" height="24">
<path d="M74.7449 40.0723C74.7449 44.8952 76.9011 45.4682 78.1147 45.4682C79.3334 45.4682 80.4584 44.6504 80.4584 43.3432C80.4584 42.0359 78.5886 41.4629 78.1147 41.4629C77.6459 41.4629 76.2136 42.5515 77.0261 43.1504C77.0261 43.1504 76.9636 42.2234 78.1511 42.2234C79.3386 42.2234 79.3334 42.989 79.3334 43.5307C79.3334 44.0775 78.8959 44.7338 77.9636 44.7338C77.0261 44.7338 75.2761 44.515 75.2761 39.989C75.2761 39.989 75.3074 26.7442 89.5417 26.5827C89.5417 26.5827 89.8282 24.6192 93.0105 24.4577C93.0105 24.4577 91.9792 22.4161 88.9792 22.3327C86.6407 22.2702 74.7449 26.3379 74.7449 40.0723Z" fill="white"/>
</mask>
<g mask="url(#mask44_339_2212)">
<path d="M94.3334 21.666H74.3334V45.666H94.3334V21.666Z" fill="white"/>
</g>
</g>
</g>
</g>
</g>
<mask id="mask45_339_2212" style="mask-type:luminance" maskUnits="userSpaceOnUse" x="49" y="22" width="19" height="24">
<path d="M49 22.2441H67.3906V45.6087H49V22.2441Z" fill="white"/>
</mask>
<g mask="url(#mask45_339_2212)">
<mask id="mask46_339_2212" style="mask-type:luminance" maskUnits="userSpaceOnUse" x="49" y="22" width="19" height="24">
<path d="M67.2917 40.0723C67.2917 44.8952 65.1354 45.4682 63.9167 45.4682C62.6979 45.4682 61.5781 44.6504 61.5781 43.3432C61.5781 42.0359 63.4479 41.4629 63.9167 41.4629C64.3906 41.4629 65.8229 42.5515 65.0104 43.1504C65.0104 43.1504 65.0729 42.2234 63.8854 42.2234C62.6979 42.2234 62.6979 42.989 62.6979 43.5307C62.6979 44.0775 63.1406 44.7338 64.0729 44.7338C65.0104 44.7338 66.7604 44.515 66.7604 39.989C66.7604 39.989 66.724 26.7442 52.4896 26.5827C52.4896 26.5827 52.2084 24.6192 49.0261 24.4577C49.0261 24.4577 50.0573 22.4161 53.0521 22.3327C55.3959 22.2702 67.2917 26.3379 67.2917 40.0723Z" fill="white"/>
</mask>
<g mask="url(#mask46_339_2212)">
<mask id="mask47_339_2212" style="mask-type:luminance" maskUnits="userSpaceOnUse" x="49" y="21" width="19" height="25">
<path d="M67.6667 21.666H49V45.666H67.6667V21.666Z" fill="white"/>
</mask>
<g mask="url(#mask47_339_2212)">
<mask id="mask48_339_2212" style="mask-type:luminance" maskUnits="userSpaceOnUse" x="49" y="22" width="19" height="24">
<path d="M49 22.2441H67.3906V45.5618H49V22.2441Z" fill="white"/>
</mask>
<g mask="url(#mask48_339_2212)">
<mask id="mask49_339_2212" style="mask-type:luminance" maskUnits="userSpaceOnUse" x="49" y="22" width="19" height="24">
<path d="M67.2917 40.0723C67.2917 44.8952 65.1354 45.4682 63.9167 45.4682C62.6979 45.4682 61.5781 44.6504 61.5781 43.3432C61.5781 42.0359 63.4479 41.4629 63.9167 41.4629C64.3906 41.4629 65.8229 42.5515 65.0104 43.1504C65.0104 43.1504 65.0729 42.2234 63.8854 42.2234C62.6979 42.2234 62.6979 42.989 62.6979 43.5307C62.6979 44.0775 63.1406 44.7338 64.0729 44.7338C65.0104 44.7338 66.7604 44.515 66.7604 39.989C66.7604 39.989 66.724 26.7442 52.4896 26.5827C52.4896 26.5827 52.2084 24.6192 49.0261 24.4577C49.0261 24.4577 50.0573 22.4161 53.0521 22.3327C55.3959 22.2702 67.2917 26.3379 67.2917 40.0723Z" fill="white"/>
</mask>
<g mask="url(#mask49_339_2212)">
<path d="M67.6667 21.666H49V45.666H67.6667V21.666Z" fill="white"/>
</g>
</g>
</g>
</g>
</g>
<mask id="mask50_339_2212" style="mask-type:luminance" maskUnits="userSpaceOnUse" x="122" y="151" width="20" height="19">
<path d="M122.443 151.859H141.849V169.797H122.443V151.859Z" fill="white"/>
</mask>
<g mask="url(#mask50_339_2212)">
<mask id="mask51_339_2212" style="mask-type:luminance" maskUnits="userSpaceOnUse" x="122" y="151" width="20" height="19">
<path d="M135.344 164.391L131.396 155.302L127.464 164.391H135.344ZM132.318 151.859H132.813L138.63 165.448C139.641 167.812 140.797 169.526 141.786 169.526V169.724H135.776V169.526C136.677 169.526 136.979 169.198 136.979 168.667C136.979 168.292 136.828 167.839 136.609 167.333L136.094 166.151C136.094 166.125 136.094 166.104 136.073 166.073L135.557 164.891H127.255L126.76 166C126.521 166.552 126.391 167.083 126.391 167.557C126.391 168.693 127.057 169.521 128.453 169.521V169.724H122.443V169.526C123.432 169.526 125.427 168.016 126.438 165.625L132.318 151.859Z" fill="white"/>
</mask>
<g mask="url(#mask51_339_2212)">
<mask id="mask52_339_2212" style="mask-type:luminance" maskUnits="userSpaceOnUse" x="122" y="151" width="21" height="20">
<path d="M142.333 151H122.333V171H142.333V151Z" fill="white"/>
</mask>
<g mask="url(#mask52_339_2212)">
<mask id="mask53_339_2212" style="mask-type:luminance" maskUnits="userSpaceOnUse" x="122" y="151" width="20" height="19">
<path d="M122.443 151.859H141.849V169.797H122.443V151.859Z" fill="white"/>
</mask>
<g mask="url(#mask53_339_2212)">
<mask id="mask54_339_2212" style="mask-type:luminance" maskUnits="userSpaceOnUse" x="122" y="151" width="20" height="19">
<path d="M135.344 164.391L131.396 155.302L127.464 164.391H135.344ZM132.318 151.859H132.813L138.63 165.448C139.641 167.813 140.797 169.526 141.786 169.526V169.724H135.776V169.526C136.677 169.526 136.979 169.198 136.979 168.667C136.979 168.292 136.828 167.839 136.609 167.333L136.094 166.151C136.094 166.125 136.094 166.104 136.073 166.073L135.557 164.891H127.255L126.76 166C126.521 166.552 126.391 167.083 126.391 167.557C126.391 168.693 127.057 169.521 128.453 169.521V169.724H122.443V169.526C123.432 169.526 125.427 168.016 126.438 165.625L132.318 151.859Z" fill="white"/>
</mask>
<g mask="url(#mask54_339_2212)">
<path d="M122.443 151.859H141.776V169.724H122.443V151.859Z" fill="#090F10"/>
</g>
</g>
</g>
</g>
</g>
</svg>
